<?xml version="1.0" encoding="UTF-8" standalone="no"?>
<svg
   xmlns:dc="http://purl.org/dc/elements/1.1/"
   xmlns:cc="http://creativecommons.org/ns#"
   xmlns:rdf="http://www.w3.org/1999/02/22-rdf-syntax-ns#"
   xmlns:svg="http://www.w3.org/2000/svg"
   xmlns="http://www.w3.org/2000/svg"
   viewBox="0 0 1122.52 793.70135"
   height="793.70135"
   width="1122.52"
   xml:space="preserve"
   id="svg2"
   version="1.1"><metadata
     id="metadata8"><rdf:RDF><cc:Work
         rdf:about=""><dc:format>image/svg+xml</dc:format><dc:type
           rdf:resource="http://purl.org/dc/dcmitype/StillImage" /></cc:Work></rdf:RDF></metadata><defs
     id="defs6"><clipPath
       id="clipPath30"
       clipPathUnits="userSpaceOnUse"><path
         id="path28"
         d="M 0,595.276 H 841.89 V 0 H 0 Z" /></clipPath><clipPath
       id="clipPath38"
       clipPathUnits="userSpaceOnUse"><path
         id="path36"
         d="m 402.112,396.262 h 76.25 v -89.01 h -76.25 z" /></clipPath><clipPath
       id="clipPath58"
       clipPathUnits="userSpaceOnUse"><path
         id="path56"
         d="m 400.049,409.704 h 65.075 V 311.35 h -65.075 z" /></clipPath><clipPath
       id="clipPath74"
       clipPathUnits="userSpaceOnUse"><path
         id="path72"
         d="M 353.277,428.913 H 480.312 V 281.488 H 353.277 Z" /></clipPath></defs><g
     transform="matrix(1.3333333,0,0,-1.3333333,0,793.70133)"
     id="g10"><text
       id="text14"
       style="font-variant:normal;font-weight:normal;font-stretch:normal;font-size:21px;font-family:'Acumin Variable Concept';-inkscape-font-specification:AcuminVariableConcept;writing-mode:lr-tb;fill:#000000;fill-opacity:1;fill-rule:nonzero;stroke:none"
       transform="matrix(1,0,0,-1,236.4722,100.6826)"><tspan
         id="tspan12"
         y="0"
         x="0 15.099 26.628 38.976002 51.345001 56.805 69.069 80.577003 91.181999 101.556 108.213 113.379 125.2629 137.33791 149.6019 154.7679 161.1729 173.1429 181.12289 186.28889 193.4709 205.73489 217.0119 222.1779 238.64191 250.9059 262.87589 268.33591 279.61292 284.7789 291.12091 302.6499 320.77289 326.23291 331.81891 341.0379"></tspan></text>
<text
       id="text18"
       style="font-variant:normal;font-weight:normal;font-stretch:normal;font-size:47.2983017px;font-family:'Acumin Variable Concept';-inkscape-font-specification:AcuminVariableConcept;writing-mode:lr-tb;fill:#000000;fill-opacity:1;fill-rule:nonzero;stroke:none"
       transform="matrix(1,0,0,-1,251.8345,166.8721)"><tspan
         id="tspan16"
         y="0"
         x="0 34.575058 70.096077 101.45486 130.35411 141.9895 177.22673 208.39632 244.38559 278.67685">	 	</tspan></text>
<text
       id="text22"
       style="font-variant:normal;font-weight:normal;font-stretch:normal;font-size:23.19739914px;font-family:'Acumin Variable Concept';-inkscape-font-specification:AcuminVariableConcept;writing-mode:lr-tb;fill:#e9001a;fill-opacity:1;fill-rule:nonzero;stroke:none"
       transform="matrix(1,0,0,-1,254.8721,136.1279)"><tspan
         id="tspan20"
         y="0"
         x="0 29.182329 54.189125 71.44799 99.308067 128.4904 160.526 185.41682 212.60417 241.64731 260.22842 286.1376">		</tspan></text>
<g
       id="g24"><g
         clip-path="url(#clipPath30)"
         id="g26"><g
           id="g32"><g
             id="g34" /><g
             id="g46"><g
               id="g44"
               clip-path="url(#clipPath38)"><g
                 id="g42"
                 transform="translate(461.7118,377.3145)"><path
                   id="path40"
                   style="fill:#f6c01a;fill-opacity:1;fill-rule:nonzero;stroke:none"
                   d="m 0,0 c 0,0 12.145,11.682 15.943,18.948 0,0 13.025,-48.977 -72.706,-89.01 l -2.33,3.022 c 0,0 -1.51,1.838 0.68,2.406 z" /></g></g></g></g><g
           transform="translate(333.061,339.1422)"
           id="g48"><path
             id="path50"
             style="fill:#fe0101;fill-opacity:1;fill-rule:nonzero;stroke:none"
             d="m 0,0 c 0,0 -1.358,3.048 14.626,14.981 0,0 26.349,17.29 49.582,6.08 0,0 -17.136,-24.673 -45.192,-28.394 0,0 -6.251,12.86 -19.016,7.333" /></g><g
           id="g52"><g
             id="g54" /><g
             id="g66"><g
               id="g64"
               clip-path="url(#clipPath58)"><g
                 id="g62"
                 transform="translate(449.8105,388.7016)"><path
                   id="path60"
                   style="fill:#fe7f02;fill-opacity:1;fill-rule:nonzero;stroke:none"
                   d="m 0,0 c 0,0 10.381,13.275 13.119,21.003 0,0 19.785,-46.658 -59.459,-98.355 l -2.733,2.664 c 0,0 -1.753,1.608 0.335,2.478 z" /></g></g></g></g><g
           id="g68"><g
             id="g70" /><g
             id="g82"><g
               id="g80"
               clip-path="url(#clipPath74)"><g
                 id="g78"
                 transform="translate(353.2774,326.2726)"><path
                   id="path76"
                   style="fill:#fe0101;fill-opacity:1;fill-rule:nonzero;stroke:none"
                   d="m 0,0 c 0,0 58.904,6.017 92.353,102.641 0,0 31.285,-36.37 -44.642,-112.755 0,0 -1.841,-0.411 -0.04,-2.275 0,0 25.271,-33.791 79.364,-24.084 0,0 -73.99,-34.304 -127.035,36.473" /></g></g></g></g><path
           id="path84"
           style="fill:#fe0101;fill-opacity:1;fill-rule:nonzero;stroke:none"
           d="M 513.785,234.548 H 305.109 V 443.224 H 513.785 Z M 302.264,231.703 H 516.63 V 446.069 H 302.264 Z" /></g></g></g></svg>